<svg xmlns="http://www.w3.org/2000/svg" width="56" height="56"><g transform="translate(28,28)" id="chord_diagram"><g><g><path fill="#7ed321" d="M1.7145055188062944e-15,-28A28,28,0,0,1,6.749613117800462,-27.17430261773089L5.54432506105038,-22.321748578850375A23,23,0,0,0,1.4083438190194562e-15,-23Z"/></g><g><path fill="#7ed321" d="M9.084116845119533,-26.485445458670608A28,28,0,0,1,19.88401504814179,-19.713597986295422L16.33329807525933,-16.19331263159981A23,23,0,0,0,7.461953122776759,-21.75590162676514Z"/></g><g><path fill="#7ed321" d="M21.52095293905476,-17.912246776856062A28,28,0,0,1,26.062218264700128,-10.235271326307428L21.408250717432246,-8.40754430375253A23,23,0,0,0,17.677925628509264,-14.713631280988906Z"/></g><g><path fill="#7ed321" d="M26.8526488054652,-7.933174152276524A28,28,0,0,1,27.795181150371537,-3.3805184244477653L22.83175594494805,-2.7768544200820933A23,23,0,0,0,22.057532947346417,-6.516535910798574Z"/></g><g><path fill="#7ed321" d="M27.98374940552363,-0.9538182263177756A28,28,0,0,1,21.77888312391549,17.5977342255993L17.889796851787725,14.45528168531371A23,23,0,0,0,22.98665129739441,-0.7834935430467442Z"/></g><g><path fill="#7ed321" d="M20.168285150280965,19.422674226196463A28,28,0,0,1,18.12269369923087,21.344038349943478L14.886498395796783,17.532602930310713A23,23,0,0,0,16.566805659159364,15.954339542947094Z"/></g><g><path fill="#7ed321" d="M16.20055485144424,22.837294553106467A28,28,0,0,1,11.919658037715546,25.336174775682363L9.79114767383777,20.811857851453368A23,23,0,0,0,13.307598627972057,18.75920624005174Z"/></g><g><path fill="#7ed321" d="M9.674251365953028,26.275632447352354A28,28,0,0,1,9.437415223491882,26.361623506518026L7.7521625050111895,21.65419073749695A23,23,0,0,0,7.946706479175701,21.583555224610862Z"/></g><g><path fill="#7ed321" d="M7.112330178213984,27.081631402780495A28,28,0,0,1,3.035681859213062,27.83495348747047L2.493595812925015,22.864426078993603A23,23,0,0,0,5.84227121781863,22.245625795141123Z"/></g><g><path fill="#7ed321" d="M0.6068304624592247,27.993423456051808A28,28,0,0,1,-4.931749185079742,27.562254080090497L-4.051079687744073,22.64042299436005A23,23,0,0,0,0.49846787987722024,22.994597838899697Z"/></g><g><path fill="#7ed321" d="M-7.306813826064092,27.02980709718881A28,28,0,0,1,-13.653258562437511,24.445623956594495L-11.215176676287957,20.08033396434548A23,23,0,0,0,-6.002025642838362,22.203055829833666Z"/></g><g><path fill="#7ed321" d="M-15.72470050001771,23.167515926070774A28,28,0,0,1,-27.17992850700043,-6.726922502478049L-22.326369845036066,-5.525686341321254A23,23,0,0,0,-12.91671826787169,19.030459510700993Z"/></g><g><path fill="#7ed321" d="M-26.493020702786474,-9.062000554056896A28,28,0,0,1,-21.91409206998085,-17.429072515438175L-18.000861343198554,-14.316738137681357A23,23,0,0,0,-21.762124148717458,-7.443786169403878Z"/></g><g><path fill="#7ed321" d="M-20.317630991116577,-19.266392264999155A28,28,0,0,1,-6.257173961984212,-27.291899421063878L-5.1398214687727455,-22.418345953016757A23,23,0,0,0,-16.68948259984576,-15.825965074820735Z"/></g><g><path fill="#7ed321" d="M-3.8633132876923204,-27.732198081672863A28,28,0,0,1,-2.4317153594810788,-27.89420657431331L-1.9974804738594574,-22.913098257471646A23,23,0,0,0,-3.1734359148901206,-22.780019852802706Z"/></g></g><g fill-opacity="0.6"><path fill="#7ed321" d="M20.987812054142722,-0.7153636697383317A21,21,0,0,1,19.241706966698676,8.411700958052394Q0,0,20.987812054142722,-0.7153636697383317Z"/><path fill="#7ed321" d="M-11.793525375013282,17.37563694455308A21,21,0,0,1,-19.454961211925134,7.905977753730943Q0,0,-7.268302974965126,13.12142415533135A15,15,0,0,1,-7.29367432343392,13.107338206656634Q0,0,-11.793525375013282,17.37563694455308Z"/><path fill="#7ed321" d="M6.8130876338396495,-19.864084094002955A21,21,0,0,1,13.822381578796497,-15.809546719945748Q0,0,1.9380764608722967,-14.874268372992761A15,15,0,0,1,2.3099261911540827,-14.821074218538289Q0,0,6.8130876338396495,-19.864084094002955Z"/><path fill="#7ed321" d="M-15.238223243337433,-14.449794198749366A21,21,0,0,1,-12.136826285234909,-17.137603324911886Q0,0,-15.238223243337433,-14.449794198749366Z"/><path fill="#7ed321" d="M-20.560250641274816,4.275054802918722A21,21,0,0,1,-20.975771962536054,1.0084595062204158Q0,0,-20.560250641274816,4.275054802918722Z"/><path fill="#7ed321" d="M0.45512284684441845,20.995067592038854A21,21,0,0,1,-2.6482009209563224,20.832355408888503Q0,0,0.45512284684441845,20.995067592038854Z"/><path fill="#7ed321" d="M-5.480110369548069,20.27235532289161A21,21,0,0,1,-7.81941108350252,19.489915605440622Q0,0,-5.480110369548069,20.27235532289161Z"/><path fill="#7ed321" d="M-18.84924742034215,-9.257746577149586A21,21,0,0,1,-17.899627591486713,-10.981954839011477Q0,0,-18.84924742034215,-9.257746577149586Z"/><path fill="#7ed321" d="M-19.454961211925134,7.905977753730943A21,21,0,0,1,-20.560250641274816,4.275054802918722Q0,0,3.6155881249741646,-14.557730678596364A15,15,0,0,1,3.6158641702502474,-14.557662116641549Q0,0,-19.454961211925134,7.905977753730943Z"/><path fill="#7ed321" d="M17.902594538943173,-10.97711750753366A21,21,0,0,1,18.646839754401785,-9.658952695487288Q0,0,17.902594538943173,-10.97711750753366Z"/><path fill="#7ed321" d="M16.14071470429107,-13.434185082642045A21,21,0,0,1,17.902594538943173,-10.97711750753366Q0,0,5.056847940700991,14.121908118403411A15,15,0,0,1,5.056447960806556,14.122051338939936Q0,0,16.14071470429107,-13.434185082642045Z"/><path fill="#7ed321" d="M-19.869765527089854,-6.796500415542671A21,21,0,0,1,-18.84924742034215,-9.257746577149586Q0,0,3.539717648867107,-14.576364394673272A15,15,0,0,1,3.6081571269529067,-14.559574243336202Q0,0,-19.869765527089854,-6.796500415542671Z"/><path fill="#7ed321" d="M-12.136826285234909,-17.137603324911886A21,21,0,0,1,-10.05736980978268,-18.43500237345447Q0,0,3.466623628275216,-14.59392067334491A15,15,0,0,1,3.539717648867107,-14.576364394673272Q0,0,-12.136826285234909,-17.137603324911886Z"/><path fill="#7ed321" d="M11.084396565290866,17.83637162607261A21,21,0,0,1,10.121260764997247,18.40000218823159Q0,0,11.084396565290866,17.83637162607261Z"/><path fill="#7ed321" d="M-10.05736980978268,-18.43500237345447A21,21,0,0,1,-8.08264203864913,-19.382231493691894Q0,0,-7.3076483777271175,13.099552480428567A15,15,0,0,1,-7.31258118718418,13.09679947089517Q0,0,-10.05736980978268,-18.43500237345447Z"/><path fill="#7ed321" d="M-20.975771962536054,1.0084595062204158A21,21,0,0,1,-20.98093196209605,-0.8947033038366844Q0,0,9.70858865484719,11.434303928572673Q0,0,-20.975771962536054,1.0084595062204158Z"/><path fill="#7ed321" d="M4.215225496808542,20.5726000790142A21,21,0,0,1,3.4339900639709993,20.717328791148446Q0,0,4.215225496808542,20.5726000790142Z"/><path fill="#7ed321" d="M19.241706966698676,8.411700958052394A21,21,0,0,1,18.721223903660945,9.513977903537198Q0,0,10.338123535163644,10.868449832965856A15,15,0,0,1,10.182833631680431,11.014077320843445Q0,0,19.241706966698676,8.411700958052394Z"/><path fill="#7ed321" d="M-20.98093196209605,-0.8947033038366844A21,21,0,0,1,-20.882729992034534,-2.2162102968313713Q0,0,-3.6251559303177077,-14.555351060035699A15,15,0,0,1,-3.521781837175364,-14.580708236959607Q0,0,-20.98093196209605,-0.8947033038366844Z"/><path fill="#7ed321" d="M1.2858791391047208e-15,-21A21,21,0,0,1,1.3900775264173664,-20.95394197926847Q0,0,5.059681580366125,14.120893112877235A15,15,0,0,1,5.058473240991543,14.121326016708649Q0,0,1.2858791391047208e-15,-21Z"/><path fill="#7ed321" d="M18.721223903660945,9.513977903537198A21,21,0,0,1,18.144062322508944,10.573221005772618Q0,0,3.2716802888320373,-14.63885610584611A15,15,0,0,1,3.3749488303293167,-14.615393268491232Q0,0,18.721223903660945,9.513977903537198Z"/><path fill="#7ed321" d="M-8.08264203864913,-19.382231493691894A21,21,0,0,1,-7.1896956801713925,-19.730896483092824Q0,0,-12.312922960074424,-8.566908904574163A15,15,0,0,1,-12.16170684649843,-8.780255496273059Q0,0,-8.08264203864913,-19.382231493691894Z"/><path fill="#7ed321" d="M12.150416138583182,17.127970914829852A21,21,0,0,1,11.084396565290866,17.83637162607261Q0,0,5.15723546745979,14.085557224802105A15,15,0,0,1,5.132301589610159,14.094661414637992Q0,0,12.150416138583182,17.127970914829852Z"/><path fill="#7ed321" d="M18.144062322508944,10.573221005772618A21,21,0,0,1,17.573193128654474,11.497081510670924Q0,0,6.551802718972388,13.493475502318372A15,15,0,0,1,6.483123770596369,13.5266073416481Q0,0,18.144062322508944,10.573221005772618Z"/><path fill="#7ed321" d="M5.334247633660488,20.311223552085373A21,21,0,0,1,4.215225496808542,20.5726000790142Q0,0,5.132301589610159,14.094661414637992A15,15,0,0,1,5.108934225164681,14.103148268487464Q0,0,5.334247633660488,20.311223552085373Z"/><path fill="#7ed321" d="M18.646839754401785,-9.658952695487288A21,21,0,0,1,19.0832633955159,-8.765218661126658Q0,0,3.151683629655668,-14.665159061481756A15,15,0,0,1,3.2716802888320373,-14.63885610584611Q0,0,18.646839754401785,-9.658952695487288Z"/><path fill="#7ed321" d="M20.639264691104028,-3.8756616222970868A21,21,0,0,1,20.790151824320777,-2.9613488686224603Q0,0,-6.716450189260911,13.412281567845833A15,15,0,0,1,-6.866978410447985,13.335839212829512Q0,0,20.639264691104028,-3.8756616222970868Z"/><path fill="#7ed321" d="M20.1394866040989,-5.949880614207393A21,21,0,0,1,20.426722459571007,-4.873295554309977Q0,0,5.056447960806556,14.122051338939936A15,15,0,0,1,5.056098822498313,14.1221763442159Q0,0,20.1394866040989,-5.949880614207393Z"/><path fill="#7ed321" d="M13.822381578796497,-15.809546719945748A21,21,0,0,1,14.225682627611054,-15.447652047430545Q0,0,13.822381578796497,-15.809546719945748Z"/><path fill="#7ed321" d="M20.426722459571007,-4.873295554309977A21,21,0,0,1,20.639264691104028,-3.8756616222970868Q0,0,6.392699161591806,13.569576169850826A15,15,0,0,1,6.389044499280494,13.571297299308332Q0,0,20.426722459571007,-4.873295554309977Z"/><path fill="#7ed321" d="M10.121260764997247,18.40000218823159A21,21,0,0,1,9.639415575209322,18.65694689300508Q0,0,2.11606504450235,14.849992213042917A15,15,0,0,1,1.7995522621962512,14.891662487970386Q0,0,10.121260764997247,18.40000218823159Z"/><path fill="#7ed321" d="M-2.6482009209563224,20.832355408888503A21,21,0,0,1,-3.1313153507899,20.765232100169445Q0,0,2.452850045693571,14.798091993677463A15,15,0,0,1,2.11606504450235,14.849992213042917Q0,0,-2.6482009209563224,20.832355408888503Z"/><path fill="#7ed321" d="M-2.89748496576924,-20.799148561254647A21,21,0,0,1,-2.4207309063960247,-20.860011070917942Q0,0,-2.89748496576924,-20.799148561254647Z"/><path fill="#7ed321" d="M-20.882729992034534,-2.2162102968313713A21,21,0,0,1,-20.772202055166556,-3.0847401477813783Q0,0,-1.3027136238780508,-14.943324168810717Q0,0,-20.882729992034534,-2.2162102968313713Z"/><path fill="#7ed321" d="M17.129996464508228,12.14756029521713A21,21,0,0,1,16.67352402948903,12.76689454949996Q0,0,-7.1400886135450055,13.19163123312371A15,15,0,0,1,-7.205548416571493,13.155989967176323Q0,0,17.129996464508228,12.14756029521713Z"/><path fill="#7ed321" d="M-7.1896956801713925,-19.730896483092824A21,21,0,0,1,-6.39416902752164,-20.002864856002077Q0,0,-1.3738787246011854,-14.936949395712908A15,15,0,0,1,-1.3525754229423348,-14.938893524128632Q0,0,-7.1896956801713925,-19.730896483092824Z"/><path fill="#7ed321" d="M14.785159392694714,14.913050047948316A21,21,0,0,1,14.473372949229102,15.215829766152199Q0,0,14.785159392694714,14.913050047948316Z"/><path fill="#7ed321" d="M-7.81941108350252,19.489915605440622A21,21,0,0,1,-8.409709407568169,19.242577469774144Q0,0,6.677359612451113,13.431785756406581A15,15,0,0,1,6.551802718972388,13.493475502318372Q0,0,-7.81941108350252,19.489915605440622Z"/><path fill="#7ed321" d="M-20.772202055166556,-3.0847401477813783A21,21,0,0,1,-20.635855874951506,-3.893770962477041Q0,0,5.055764934914679,14.122295880022028Q0,0,-20.772202055166556,-3.0847401477813783Z"/><path fill="#7ed321" d="M17.573193128654474,11.497081510670924A21,21,0,0,1,17.129996464508228,12.14756029521713Q0,0,5.108934225164681,14.103148268487464A15,15,0,0,1,5.088128683204847,14.110667826263509Q0,0,17.573193128654474,11.497081510670924Z"/><path fill="#7ed321" d="M-8.409709407568169,19.242577469774144A21,21,0,0,1,-8.802017057556027,19.066318357734737Q0,0,2.599326181479013,-14.773066824538422A15,15,0,0,1,2.831763504198742,-14.73027886553028Q0,0,-8.409709407568169,19.242577469774144Z"/><path fill="#7ed321" d="M-20.635855874951506,-3.893770962477041A21,21,0,0,1,-20.483723640684715,-4.627857583380682Q0,0,6.385545752081528,13.572943875522125A15,15,0,0,1,6.385531091633328,13.57295077268698Q0,0,-20.635855874951506,-3.893770962477041Z"/><path fill="#7ed321" d="M2.0914544855011283,-20.89559327071326A21,21,0,0,1,2.7133070452212156,-20.823975722189864Q0,0,9.868423479551724,11.296646317745468A15,15,0,0,1,9.803692245431618,11.35286828765594Q0,0,2.0914544855011283,-20.89559327071326Z"/><path fill="#7ed321" d="M1.3900775264173664,-20.95394197926847A21,21,0,0,1,2.0914544855011283,-20.89559327071326Q0,0,6.425459612548071,13.554094169936757A15,15,0,0,1,6.409425857207224,13.561683530482616Q0,0,1.3900775264173664,-20.95394197926847Z"/><path fill="#7ed321" d="M-17.899627591486713,-10.981954839011477A21,21,0,0,1,-17.522298245324798,-11.574500602699343Q0,0,-1.3321874353398337,-14.940725438783844A15,15,0,0,1,-1.3220400285737426,-14.941626757580607Q0,0,-17.899627591486713,-10.981954839011477Z"/><path fill="#7ed321" d="M-6.39416902752164,-20.002864856002077A21,21,0,0,1,-5.734261980129104,-20.20193652953216Q0,0,6.400642055032531,13.565831389315914A15,15,0,0,1,6.392699161591806,13.569576169850826Q0,0,-6.39416902752164,-20.002864856002077Z"/><path fill="#7ed321" d="M-17.522298245324798,-11.574500602699343A21,21,0,0,1,-17.238092144104193,-11.993672466403828Q0,0,9.721332398937994,11.42347129332229A15,15,0,0,1,9.716402848990096,11.427664489130628Q0,0,-17.522298245324798,-11.574500602699343Z"/><path fill="#7ed321" d="M15.126213862710724,14.567005669647347A21,21,0,0,1,14.785159392694714,14.913050047948316Q0,0,5.075745748916084,14.115126818146562A15,15,0,0,1,5.063838459298293,14.11940296394049Q0,0,15.126213862710724,14.567005669647347Z"/><path fill="#7ed321" d="M9.639415575209322,18.65694689300508A21,21,0,0,1,9.348303457431559,18.804500058969214Q0,0,10.051787702491891,11.133802763837377A15,15,0,0,1,9.958646702382792,11.217190194390051Q0,0,9.639415575209322,18.65694689300508Z"/><path fill="#7ed321" d="M3.9644689058782383,-20.622390411742394A21,21,0,0,1,4.2020493230833775,-20.575295416746137Q0,0,3.9644689058782383,-20.622390411742394Z"/><path fill="#7ed321" d="M14.225682627611054,-15.447652047430545A21,21,0,0,1,14.575889584417398,-15.1176533504004Q0,0,5.05760890819741,14.121635603984483A15,15,0,0,1,5.056847940700991,14.121908118403411Q0,0,14.225682627611054,-15.447652047430545Z"/><path fill="#7ed321" d="M-5.734261980129104,-20.20193652953216A21,21,0,0,1,-5.306069547794978,-20.31860295281058Q0,0,9.712603325003114,11.430893956779515A15,15,0,0,1,9.71031074649256,11.432841519349033Q0,0,-5.734261980129104,-20.20193652953216Z"/><path fill="#7ed321" d="M-8.802017057556027,19.066318357734737A21,21,0,0,1,-9.155628381739294,18.899060001372817Q0,0,-2.530693470696378,14.784978544366398A15,15,0,0,1,-2.5672879799229875,14.778668154747333Q0,0,-8.802017057556027,19.066318357734737Z"/><path fill="#7ed321" d="M3.2338966676157157,-20.749503905953606A21,21,0,0,1,3.6390566540706186,-20.68229355435379Q0,0,1.6422364790654846,14.909830963053425A15,15,0,0,1,1.6288959736687294,14.911294306899244Q0,0,3.2338966676157157,-20.749503905953606Z"/><path fill="#7ed321" d="M19.0832633955159,-8.765218661126658A21,21,0,0,1,19.24508521305483,-8.403969011262378Q0,0,6.409425857207224,13.561683530482616A15,15,0,0,1,6.400642055032531,13.565831389315914Q0,0,19.0832633955159,-8.765218661126658Z"/><path fill="#7ed321" d="M16.67352402948903,12.76689454949996A21,21,0,0,1,16.442368633925206,13.063250503075892Q0,0,-1.3220400285737426,-14.941626757580607A15,15,0,0,1,-1.314015273324212,-14.94233461884289Q0,0,16.67352402948903,12.76689454949996Z"/><path fill="#7ed321" d="M-3.1313153507899,20.765232100169445A21,21,0,0,1,-3.459352745846801,20.71310885839695Q0,0,6.452647931926225,13.541171835059483A15,15,0,0,1,6.425459612548071,13.554094169936757Q0,0,-3.1313153507899,20.765232100169445Z"/><path fill="#7ed321" d="M14.255967084352605,15.419708249180822A21,21,0,0,1,14.072502783488646,15.587323869372328Q0,0,-1.5998645985564024,-14.914437075072124A15,15,0,0,1,-1.5165830321429459,-14.92313559231491Q0,0,14.255967084352605,15.419708249180822Z"/><path fill="#7ed321" d="M19.24508521305483,-8.403969011262378A21,21,0,0,1,19.354766601974372,-8.148190583380913Q0,0,-11.826642822508049,-9.226620158477257A15,15,0,0,1,-11.797847220515433,-9.263411950322423Q0,0,19.24508521305483,-8.403969011262378Z"/><path fill="#7ed321" d="M13.942105383335909,15.704066272146072A21,21,0,0,1,13.815792871372414,15.815304844843656Q0,0,1.7995522621962512,14.891662487970386A15,15,0,0,1,1.6828135507301265,14.905305718215882Q0,0,13.942105383335909,15.704066272146072Z"/><path fill="#7ed321" d="M-9.61376977462718,18.670174897961317A21,21,0,0,1,-9.814758901269455,18.565303867967042Q0,0,9.803692245431618,11.35286828765594A15,15,0,0,1,9.747406203314684,11.401231175078523Q0,0,-9.61376977462718,18.670174897961317Z"/><path fill="#7ed321" d="M-17.0263895850978,-12.292357694782282A21,21,0,0,1,-16.836651155490408,-12.550983143496113Q0,0,5.058473240991543,14.121326016708649A15,15,0,0,1,5.05760890819741,14.121635603984483Q0,0,-17.0263895850978,-12.292357694782282Z"/><path fill="#7ed321" d="M-16.836651155490408,-12.550983143496113A21,21,0,0,1,-16.655845336770025,-12.789949809033509Q0,0,6.389044499280494,13.571297299308332A15,15,0,0,1,6.38723979814414,13.572146763169178Q0,0,-16.836651155490408,-12.550983143496113Z"/><path fill="#7ed321" d="M-9.155628381739294,18.899060001372817A21,21,0,0,1,-9.403030264965276,18.777194194984165Q0,0,5.088128683204847,14.110667826263509A15,15,0,0,1,5.075745748916084,14.115126818146562Q0,0,-9.155628381739294,18.899060001372817Z"/><path fill="#7ed321" d="M20.81167602829509,-2.806089965287561A21,21,0,0,1,20.830657974690645,-2.6615199306894284Q0,0,20.81167602829509,-2.806089965287561Z"/><path fill="#7ed321" d="M4.2020493230833775,-20.575295416746137A21,21,0,0,1,4.412357081517936,-20.531222686074457Q0,0,-2.595184544438895,14.773794948499368A15,15,0,0,1,-2.622614561568149,14.768950296532612Q0,0,4.2020493230833775,-20.575295416746137Z"/><path fill="#7ed321" d="M-9.814758901269455,18.565303867967042A21,21,0,0,1,-9.996124058963009,18.468283726373194Q0,0,1.6828135507301265,14.905305718215882A15,15,0,0,1,1.658585080429884,14.908021180927246Q0,0,-9.814758901269455,18.565303867967042Z"/><path fill="#7ed321" d="M-5.306069547794978,-20.31860295281058A21,21,0,0,1,-5.0752183024447906,-20.37749148404998Q0,0,5.056098822498313,14.1221763442159A15,15,0,0,1,5.055764934914679,14.122295880022028Q0,0,-5.306069547794978,-20.31860295281058Z"/><path fill="#7ed321" d="M14.575889584417398,-15.1176533504004A21,21,0,0,1,14.722798649103275,-14.97461852395455Q0,0,6.38723979814414,13.572146763169178A15,15,0,0,1,6.385545752081528,13.572943875522125Q0,0,14.575889584417398,-15.1176533504004Z"/><path fill="#7ed321" d="M4.724928362461043,-20.461550575887724A21,21,0,0,1,4.8532730795853025,-20.431488942682876Q0,0,-1.4659326553805392,-14.928196188752644A15,15,0,0,1,-1.4173066697857821,-14.932891274089581Q0,0,4.724928362461043,-20.461550575887724Z"/><path fill="#7ed321" d="M19.354766601974372,-8.148190583380913A21,21,0,0,1,19.421236569919202,-7.988464814670781Q0,0,9.729726976861304,11.41632221670961A15,15,0,0,1,9.721332398937994,11.42347129332229Q0,0,19.354766601974372,-8.148190583380913Z"/><path fill="#7ed321" d="M-20.483723640684715,-4.627857583380682A21,21,0,0,1,-20.44204778358798,-4.808605038210739Q0,0,-11.739823285604203,-9.336838288349295A15,15,0,0,1,-11.739692180346884,-9.33700313327045Q0,0,-20.483723640684715,-4.627857583380682Z"/><path fill="#7ed321" d="M-2.4207309063960247,-20.860011070917942A21,21,0,0,1,-2.2398104379789636,-20.880211905100975Q0,0,5.061413525347579,14.12027241682782A15,15,0,0,1,5.059681580366125,14.120893112877235Q0,0,-2.4207309063960247,-20.860011070917942Z"/><path fill="#7ed321" d="M-16.655845336770025,-12.789949809033509A21,21,0,0,1,-16.55729995151127,-12.91726822186816Q0,0,-2.622614561568149,14.768950296532612A15,15,0,0,1,-2.632511474249802,14.767189419044612Q0,0,-16.655845336770025,-12.789949809033509Z"/><path fill="#7ed321" d="M20.790151824320777,-2.9613488686224603A21,21,0,0,1,20.81167602829509,-2.806089965287561Q0,0,3.6081571269529067,-14.559574243336202A15,15,0,0,1,3.6155881249741646,-14.557730678596364Q0,0,20.790151824320777,-2.9613488686224603Z"/><path fill="#7ed321" d="M14.799114778508283,-14.899201380360548A21,21,0,0,1,14.865084119504047,-14.833383771751762Q0,0,13.913716762780602,-5.604327421298483A15,15,0,0,1,13.931440791260693,-5.560122074163267Q0,0,14.799114778508283,-14.899201380360548Z"/><path fill="#7ed321" d="M-4.93049457204551,-20.41299153174345A21,21,0,0,1,-4.789586268622266,-20.446512254549067Q0,0,1.6262617180503414,14.911581835083894Q0,0,-4.93049457204551,-20.41299153174345Z"/><path fill="#7ed321" d="M16.442368633925206,13.063250503075892A21,21,0,0,1,16.372794927589037,13.150345480599155Q0,0,14.884189225474232,-1.8603524129252376A15,15,0,0,1,14.886965968544665,-1.8380000683876447Q0,0,16.442368633925206,13.063250503075892Z"/><path fill="#7ed321" d="M-20.44204778358798,-4.808605038210739A21,21,0,0,1,-20.409532973256674,-4.94479158444Q0,0,11.667533744396037,9.427017360935526A15,15,0,0,1,11.667258816383299,9.427357620856768Q0,0,-20.44204778358798,-4.808605038210739Z"/><path fill="#7ed321" d="M-10.08776778320009,18.41838595404685A21,21,0,0,1,-10.175624164951177,18.369993817463893Q0,0,-1.3525754229423348,-14.938893524128632A15,15,0,0,1,-1.3321874353398337,-14.940725438783844Q0,0,-10.08776778320009,18.41838595404685Z"/><path fill="#7ed321" d="M-2.123216245000124,-20.892389829240877A21,21,0,0,1,-2.0523057175327546,-20.8994746642537Q0,0,6.483123770596369,13.5266073416481A15,15,0,0,1,6.452647931926225,13.541171835059483Q0,0,-2.123216245000124,-20.892389829240877Z"/><path fill="#7ed321" d="M14.722798649103275,-14.97461852395455A21,21,0,0,1,14.799114778508283,-14.899201380360548Q0,0,9.716402848990096,11.427664489130628A15,15,0,0,1,9.712603325003114,11.430893956779515Q0,0,14.722798649103275,-14.97461852395455Z"/><path fill="#7ed321" d="M19.421236569919202,-7.988464814670781A21,21,0,0,1,19.452262504694758,-7.912615461934597Q0,0,-7.29367432343392,13.107338206656634A15,15,0,0,1,-7.3076483777271175,13.099552480428567Q0,0,19.421236569919202,-7.988464814670781Z"/><path fill="#7ed321" d="M-3.459352745846801,20.71310885839695A21,21,0,0,1,-3.54297085897493,20.698969962112955Q0,0,5.063838459298293,14.11940296394049A15,15,0,0,1,5.061413525347579,14.12027241682782Q0,0,-3.459352745846801,20.71310885839695Z"/><path fill="#7ed321" d="M-1.984229337700095,-20.906047783725413A21,21,0,0,1,-1.9234302144416595,-20.91172915399807Q0,0,1.658585080429884,14.908021180927246A15,15,0,0,1,1.6422364790654846,14.909830963053425Q0,0,-1.984229337700095,-20.906047783725413Z"/><path fill="#7ed321" d="M19.50401710776497,-7.784170903828574A21,21,0,0,1,19.52211662711089,-7.7386667067060415Q0,0,11.694853519706456,9.393103914713683A15,15,0,0,1,11.682738859038167,9.408167342873934Q0,0,19.50401710776497,-7.784170903828574Z"/><path fill="#7ed321" d="M7.25568852446477,19.706724335514266A21,21,0,0,1,7.220129654443706,19.719780114722948Q0,0,7.25568852446477,19.706724335514266Z"/><path fill="#7ed321" d="M19.452262504694758,-7.912615461934597A21,21,0,0,1,19.47920346789284,-7.846058389817876Q0,0,-1.306402613270858,-14.943002115105221A15,15,0,0,1,-1.303827323267107,-14.943227038063167Q0,0,19.452262504694758,-7.912615461934597Z"/><path fill="#7ed321" d="M-3.5942031718921825,20.690135416646264A21,21,0,0,1,-3.633258362214453,20.683312927899117Q0,0,9.747406203314684,11.401231175078523A15,15,0,0,1,9.729726976861304,11.41632221670961Q0,0,-3.5942031718921825,20.690135416646264Z"/><path fill="#7ed321" d="M20.830657974690645,-2.6615199306894284A21,21,0,0,1,20.837864915663925,-2.6044933780953325Q0,0,9.71031074649256,11.432841519349033A15,15,0,0,1,9.70858865484719,11.434303928572673Q0,0,20.830657974690645,-2.6615199306894284Z"/><path fill="#7ed321" d="M-16.516986108721607,-12.968776730451392A21,21,0,0,1,-16.481648562185036,-13.013656698738593Q0,0,1.6262903515365714,14.91157871227923A15,15,0,0,1,1.6262706660154314,14.911580859213343Q0,0,-16.516986108721607,-12.968776730451392Z"/><path fill="#7ed321" d="M19.52211662711089,-7.7386667067060415A21,21,0,0,1,19.53938327426294,-7.69496596883012Q0,0,1.6288959736687294,14.911294306899244A15,15,0,0,1,1.6276325394732314,14.911432269116467Q0,0,19.52211662711089,-7.7386667067060415Z"/><path fill="#7ed321" d="M-16.481648562185036,-13.013656698738593A21,21,0,0,1,-16.456846750347,-13.045006517269103Q0,0,11.67546165241194,9.417196780521168A15,15,0,0,1,11.672163036350677,9.421284947014867Q0,0,-16.481648562185036,-13.013656698738593Z"/><path fill="#7ed321" d="M-4.789586268622266,-20.446512254549067A21,21,0,0,1,-4.746446598830786,-20.456569719394494Q0,0,14.89011341817286,-1.8123251347229579A15,15,0,0,1,14.890187357041338,-1.8117175475791738Q0,0,-4.789586268622266,-20.446512254549067Z"/><path fill="#7ed321" d="M-20.409532973256674,-4.94479158444A21,21,0,0,1,-20.401623153393995,-4.977325859022896Q0,0,-2.632511474249802,14.767189419044612A15,15,0,0,1,-2.637533918116313,14.7662931987275Q0,0,-20.409532973256674,-4.94479158444Z"/><path fill="#7ed321" d="M-20.401623153393995,-4.977325859022896A21,21,0,0,1,-20.393785322839467,-5.009343290885295Q0,0,1.6262706660154314,14.911580859213343Q0,0,-20.401623153393995,-4.977325859022896Z"/><path fill="#7ed321" d="M-16.456846750347,-13.045006517269103A21,21,0,0,1,-16.442450644309027,-13.063147278104982Q0,0,10.648768824902188,-10.564266302672952A15,15,0,0,1,10.650992408298169,-10.56202446117101Q0,0,-16.456846750347,-13.045006517269103Z"/><path fill="#7ed321" d="M-4.746446598830786,-20.456569719394494A21,21,0,0,1,-4.726794054093765,-20.461119665604418Q0,0,11.668185385972537,9.426210786873849A15,15,0,0,1,11.667533744396037,9.427017360935526Q0,0,-4.746446598830786,-20.456569719394494Z"/><path fill="#7ed321" d="M-20.393785322839467,-5.009343290885295A21,21,0,0,1,-20.38901710442653,-5.028715692441002Q0,0,14.890275398926633,-1.8109938001330446Q0,0,-20.393785322839467,-5.009343290885295Z"/><path fill="#7ed321" d="M14.865084119504047,-14.833383771751762A21,21,0,0,1,14.878502580289506,-14.819924458927533Q0,0,-1.303827323267107,-14.943227038063167A15,15,0,0,1,-1.3032014286882003,-14.943281635446246Q0,0,14.865084119504047,-14.833383771751762Z"/><path fill="#7ed321" d="M-4.726794054093765,-20.461119665604418A21,21,0,0,1,-4.70781504455924,-20.465494802379485Q0,0,-2.6417923003481754,14.765531939006502A15,15,0,0,1,-2.6419429257440825,14.765504988895938Q0,0,-4.726794054093765,-20.461119665604418Z"/><path fill="#7ed321" d="M20.84175235596253,-2.5732000957427026A21,21,0,0,1,20.843863177738072,-2.556045349311102Q0,0,-1.3032014286882003,-14.943281635446246A15,15,0,0,1,-1.3027136238780508,-14.943324168810717Q0,0,20.84175235596253,-2.5732000957427026Z"/><path fill="#7ed321" d="M16.355834402653436,13.171434280023508A21,21,0,0,1,16.345646313376715,13.184075492729635Q0,0,1.6276325394732314,14.911432269116467A15,15,0,0,1,1.6265784756579758,14.911547285997056Q0,0,16.355834402653436,13.171434280023508Z"/><path fill="#7ed321" d="M14.878502580289506,-14.819924458927533A21,21,0,0,1,14.889589718042503,-14.808785163826334Q0,0,-7.31258118718418,13.09679947089517A15,15,0,0,1,-7.313594972698421,13.096233373581901Q0,0,14.878502580289506,-14.819924458927533Z"/><path fill="#7ed321" d="M-4.70781504455924,-20.465494802379485A21,21,0,0,1,-4.699004440388988,-20.467519568066976Q0,0,13.96005731956754,-5.487877516343519A15,15,0,0,1,13.961397195130871,-5.484467919478773Q0,0,-4.70781504455924,-20.465494802379485Z"/><path fill="#7ed321" d="M20.843863177738072,-2.556045349311102A21,21,0,0,1,20.845526595883083,-2.54244389128472Q0,0,1.6265784756579758,14.911547285997056A15,15,0,0,1,1.6263547768586584,14.9115716857677Q0,0,20.843863177738072,-2.556045349311102Z"/><path fill="#7ed321" d="M19.53938327426294,-7.69496596883012A21,21,0,0,1,19.544080247394557,-7.683028522880927Q0,0,-2.641335106286466,14.76561373110846A15,15,0,0,1,-2.6417923003481754,14.765531939006502Q0,0,19.53938327426294,-7.69496596883012Z"/><path fill="#7ed321" d="M-1.8396213826538972,-20.919268466380046A21,21,0,0,1,-1.828963658579201,-20.920202961147307Q0,0,-2.637533918116313,14.7662931987275A15,15,0,0,1,-2.639206816884184,14.765994290182833Q0,0,-1.8396213826538972,-20.919268466380046Z"/><path fill="#7ed321" d="M14.889589718042503,-14.808785163826334A21,21,0,0,1,14.898405822022552,-14.799915674162625Q0,0,1.6263547768586584,14.9115716857677A15,15,0,0,1,1.6262903515365714,14.91157871227923Q0,0,14.889589718042503,-14.808785163826334Z"/><path fill="#7ed321" d="M-20.38901710442653,-5.028715692441002A21,21,0,0,1,-20.38669381608642,-5.038126164472636Q0,0,10.652133174378827,-10.560873961718228A15,15,0,0,1,10.652150918647388,-10.560856064086833Q0,0,-20.38901710442653,-5.028715692441002Z"/><path fill="#7ed321" d="M-16.442450644309027,-13.063147278104982A21,21,0,0,1,-16.43768357266128,-13.069145295889147Q0,0,-7.313594972698421,13.096233373581901A15,15,0,0,1,-7.314245658448667,13.095869976747052Q0,0,-16.442450644309027,-13.063147278104982Z"/><path fill="#7ed321" d="M16.341028250890947,13.189798925820813A21,21,0,0,1,16.33671540653228,13.19514038295807Q0,0,-2.639206816884184,14.765994290182833A15,15,0,0,1,-2.640470329198693,14.765768399938466Q0,0,16.341028250890947,13.189798925820813Z"/><path fill="#7ed321" d="M-20.38669381608642,-5.038126164472636A21,21,0,0,1,-20.384946380250323,-5.045191876858537Q0,0,13.961671651595704,-5.483769204938227A15,15,0,0,1,13.96190264180364,-5.4831810676646935Q0,0,-20.38669381608642,-5.038126164472636Z"/><path fill="#7ed321" d="M14.903990883283353,-14.794291323041016A21,21,0,0,1,14.908276354863064,-14.789972823742133Q0,0,11.669082433237342,9.425100273541478A15,15,0,0,1,11.668185385972537,9.426210786873849Q0,0,14.903990883283353,-14.794291323041016Z"/><path fill="#7ed321" d="M14.898405822022552,-14.799915674162625A21,21,0,0,1,14.903990883283353,-14.794291323041016Q0,0,-2.6419429257440825,14.765504988895938A15,15,0,0,1,-2.642008492007004,14.765493257191338Q0,0,14.898405822022552,-14.799915674162625Z"/><path fill="#7ed321" d="M-4.699004440388988,-20.467519568066976A21,21,0,0,1,-4.692880471488159,-20.46892456579791Q0,0,10.650992408298169,-10.56202446117101A15,15,0,0,1,10.651638857667933,-10.56137252660934Q0,0,-4.699004440388988,-20.467519568066976Z"/><path fill="#7ed321" d="M20.845526595883083,-2.54244389128472A21,21,0,0,1,20.845947995948574,-2.5389864415170966Q0,0,-2.640470329198693,14.765768399938466A15,15,0,0,1,-2.641335106286466,14.76561373110846Q0,0,20.845526595883083,-2.54244389128472Z"/><path fill="#7ed321" d="M-16.43768357266128,-13.069145295889147A21,21,0,0,1,-16.435752599845884,-13.07157360368901Q0,0,14.890187357041338,-1.8117175475791738A15,15,0,0,1,14.890255185012625,-1.8111599943695362Q0,0,-16.43768357266128,-13.069145295889147Z"/><path fill="#7ed321" d="M20.845947995948574,-2.5389864415170966A21,21,0,0,1,20.846158785442004,-2.537255188612141Q0,0,13.961397195130871,-5.484467919478773A15,15,0,0,1,13.961671651595704,-5.483769204938227Q0,0,20.845947995948574,-2.5389864415170966Z"/><path fill="#7ed321" d="M14.912294400735107,-14.785921537253076A21,21,0,0,1,14.912986444130357,-14.785223546405518Q0,0,14.890255185012625,-1.8111599943695362A15,15,0,0,1,14.890275398926633,-1.8109938001330446Q0,0,14.912294400735107,-14.785921537253076Z"/></g></g></svg>