<svg xmlns="http://www.w3.org/2000/svg" width="600" height="600"><g transform="translate(300,300)" id="chord_diagram"><g><g><path fill="#7ed321" d="M1.5308084989341916e-14,-250A250,250,0,0,1,68.13307843885897,-240.53665754400987L64.04509373252743,-226.10445809136928A235,235,0,0,0,1.43895998899814e-14,-235Z"/></g><g><path fill="#7ed321" d="M78.30391460730935,-237.4205066062559A250,250,0,0,1,186.04545256812915,-166.9942800778518L174.8827254140414,-156.9746232731807A235,235,0,0,0,73.60567973087079,-223.17527620988056Z"/></g><g><path fill="#7ed321" d="M192.98103000996903,-158.92866971157667A250,250,0,0,1,236.8153427983098,-80.11550046850488L222.60642223041123,-75.30857044039459A235,235,0,0,0,181.40216820937087,-149.39294952888207Z"/></g><g><path fill="#7ed321" d="M240.00910705796946,-69.9687682415244A250,250,0,0,1,248.86817281852922,-23.76199818968673L233.93608244941746,-22.336278298305523A235,235,0,0,0,225.60856063449128,-65.77064214703293Z"/></g><g><path fill="#7ed321" d="M249.65372852192024,-13.153548384498722A250,250,0,0,1,181.80764744945066,171.59830805953843L170.89918860248363,161.30240957596612A235,235,0,0,0,234.67450481060504,-12.3643354814288Z"/></g><g><path fill="#7ed321" d="M174.34321386381805,179.17712962215631A250,250,0,0,1,152.89172391262528,197.79818189009112L143.71822047786776,185.93029097668563A235,235,0,0,0,163.88262103198895,168.42650184482693Z"/></g><g><path fill="#7ed321" d="M144.3389146693959,204.1231924893907A250,250,0,0,1,100.68536794477765,228.8284437779201L94.64424586809099,215.0987371512449A235,235,0,0,0,135.67857978923215,191.87580094002726Z"/></g><g><path fill="#7ed321" d="M90.85978031820659,232.90448754913942A250,250,0,0,1,88.47887077991395,233.81935211934723L83.17013853311911,219.7901909921864A235,235,0,0,0,85.40819349911419,218.93021829619104Z"/></g><g><path fill="#7ed321" d="M78.45201810120324,237.3716092034776A250,250,0,0,1,37.65143267603606,247.14847686652234L35.3923467154739,232.319568254531A235,235,0,0,0,73.74489701513104,223.12931265126892Z"/></g><g><path fill="#7ed321" d="M27.103565922342163,248.5264507337061A250,250,0,0,1,-29.106235985124513,248.29987319122466L-27.359861826017042,233.40188079975118A235,235,0,0,0,25.477351967001635,233.61486368968374Z"/></g><g><path fill="#7ed321" d="M-39.64265113283908,246.83691014748993A250,250,0,0,1,-105.89806313370703,226.46324254617878L-99.54417934568461,212.87544799340805A235,235,0,0,0,-37.26409206486873,232.02669553864052Z"/></g><g><path fill="#7ed321" d="M-115.43602452945731,221.75329589621558A250,250,0,0,1,-239.6261804900363,-71.26916320370653L-225.24860966063412,-66.99301341148413A235,235,0,0,0,-108.50986305768987,208.44809814244263Z"/></g><g><path fill="#7ed321" d="M-236.37744361762404,-81.39842841724267A250,250,0,0,1,-187.9931831518479,-164.79855305322243L-176.713592162737,-154.9106398700291A235,235,0,0,0,-222.19479700056658,-76.5145227122081Z"/></g><g><path fill="#7ed321" d="M-180.8124140671012,-172.6466649525184A250,250,0,0,1,-35.73990309853054,-247.4321307480248L-33.59550891261871,-232.58620290314332A235,235,0,0,0,-169.96366922307513,-162.2878650553673Z"/></g><g><path fill="#7ed321" d="M-25.181700022350032,-248.72853069960507A250,250,0,0,1,-10.635087570624709,-249.77368738993533L-9.996982316387227,-234.7872661465392A235,235,0,0,0,-23.67079802100903,-233.80481885762876Z"/></g></g><g fill-opacity="0.6"><path fill="#7ed321" d="M224.68835566972822,-11.83819354604885A225,225,0,0,1,202.28162193789274,98.52484674525223Q0,0,224.68835566972822,-11.83819354604885Z"/><path fill="#7ed321" d="M-103.89242207651158,199.577966306594A225,225,0,0,1,-205.11195133435487,92.4883096386416Q0,0,-86.09782910450579,186.04344606433014A205,205,0,0,1,-86.50569415890327,185.85414947771892Q0,0,-103.89242207651158,199.577966306594Z"/><path fill="#7ed321" d="M70.47352314657842,-213.67845594563033A225,225,0,0,1,154.76423436254709,-163.31880406791677Q0,0,30.006375667680157,-202.7920546256437A205,205,0,0,1,35.751415430001714,-201.85845608928906Q0,0,70.47352314657842,-213.67845594563033Z"/><path fill="#7ed321" d="M-162.73117266039108,-155.38199845726658A225,225,0,0,1,-124.53902322640184,-187.3900522808341Q0,0,-162.73117266039108,-155.38199845726658Z"/><path fill="#7ed321" d="M-219.65408268725426,48.75534800225366A225,225,0,0,1,-224.81587948845208,9.100567555586359Q0,0,-219.65408268725426,48.75534800225366Z"/><path fill="#7ed321" d="M24.393209330107947,223.6738056603355A225,225,0,0,1,-13.335184851376132,224.60448091028735Q0,0,24.393209330107947,223.6738056603355Z"/><path fill="#7ed321" d="M-35.67838601955517,222.15321913274093A225,225,0,0,1,-64.87681282789089,215.44372619618056Q0,0,-35.67838601955517,222.15321913274093Z"/><path fill="#7ed321" d="M-200.03041418634228,-103.01860705930922A225,225,0,0,1,-187.96951637121524,-123.6626900692826Q0,0,-200.03041418634228,-103.01860705930922Z"/><path fill="#7ed321" d="M-205.11195133435487,92.4883096386416A225,225,0,0,1,-219.65408268725426,48.75534800225366Q0,0,55.86488387477409,-197.241260261787A205,205,0,0,1,55.86912431986436,-197.2400591860881Q0,0,-205.11195133435487,92.4883096386416Z"/><path fill="#7ed321" d="M194.6350129207929,-112.88140566684478A225,225,0,0,1,203.2022381615574,-96.61185437685016Q0,0,194.6350129207929,-112.88140566684478Z"/><path fill="#7ed321" d="M173.68292700897211,-143.035802740419A225,225,0,0,1,194.6350129207929,-112.88140566684478Q0,0,72.56944878729952,191.72552021759523A205,205,0,0,1,72.56329202371195,191.72785048260855Q0,0,173.68292700897211,-143.035802740419Z"/><path fill="#7ed321" d="M-212.73969925586164,-73.2585855755184A225,225,0,0,1,-200.03041418634228,-103.01860705930922Q0,0,54.69918627850661,-197.56770743334863A205,205,0,0,1,55.7507310591712,-197.27355622679883Q0,0,-212.73969925586164,-73.2585855755184Z"/><path fill="#7ed321" d="M-124.53902322640184,-187.3900522808341A225,225,0,0,1,-98.71043930633726,-202.19112040826596Q0,0,53.57573901759564,-197.87531475330238A205,205,0,0,1,54.69918627850661,-197.56770743334863Q0,0,-124.53902322640184,-187.3900522808341Z"/><path fill="#7ed321" d="M116.90810175807093,192.24332431406958A225,225,0,0,1,105.11919308410933,198.93455015493348Q0,0,116.90810175807093,192.24332431406958Z"/><path fill="#7ed321" d="M-98.71043930633726,-202.19112040826596A225,225,0,0,1,-74.15730925060784,-212.42809014984275Q0,0,-86.73034815729886,185.74941913371822A205,205,0,0,1,-86.80965214148165,185.7123697955388Q0,0,-98.71043930633726,-202.19112040826596Z"/><path fill="#7ed321" d="M-224.81587948845208,9.100567555586359A225,225,0,0,1,-224.5631026448219,-14.014739759666586Q0,0,125.37125774750709,162.19447503169812Q0,0,-224.81587948845208,9.100567555586359Z"/><path fill="#7ed321" d="M57.22359905614311,217.60160778602207A225,225,0,0,1,47.839007461482986,219.85547381200263Q0,0,57.22359905614311,217.60160778602207Z"/><path fill="#7ed321" d="M202.28162193789274,98.52484674525223A225,225,0,0,1,195.36324372908936,111.61632048965072Q0,0,135.4862092167734,153.8456600365077A205,205,0,0,1,132.99317214245804,156.00582092821577Q0,0,202.28162193789274,98.52484674525223Z"/><path fill="#7ed321" d="M-224.5631026448219,-14.014739759666586A225,225,0,0,1,-222.98645719931469,-30.033979185219504Q0,0,-33.606132408700844,-202.2266744634072A205,205,0,0,1,-31.978109974815595,-202.49049479528315Q0,0,-224.5631026448219,-14.014739759666586Z"/><path fill="#7ed321" d="M1.3777276490407723e-14,-225A225,225,0,0,1,16.882582736928825,-224.3657246553732Q0,0,72.61306574851102,191.70900522041842A205,205,0,0,1,72.59446639141694,191.71604901349662Q0,0,1.3777276490407723e-14,-225Z"/><path fill="#7ed321" d="M195.36324372908936,111.61632048965072A225,225,0,0,1,187.68395233578656,124.09566485424942Q0,0,50.57759535944605,-198.66279683840187A205,205,0,0,1,52.16615591143951,-198.2515880829795Q0,0,195.36324372908936,111.61632048965072Z"/><path fill="#7ed321" d="M-74.15730925060784,-212.42809014984275A225,225,0,0,1,-63.06787086396859,-215.98019276009035Q0,0,-163.54748725576772,-123.60104939815231A205,205,0,0,1,-161.07261709425188,-126.80935305571317Q0,0,-74.15730925060784,-212.42809014984275Z"/><path fill="#7ed321" d="M129.90502320245633,183.71087324045163A225,225,0,0,1,116.90810175807093,192.24332431406958Q0,0,74.11428558553845,191.13365133368129A205,205,0,0,1,73.73065921283239,191.2819643668508Q0,0,129.90502320245633,183.71087324045163Z"/><path fill="#7ed321" d="M187.68395233578656,124.09566485424942A225,225,0,0,1,180.08864862841207,134.88172090832893Q0,0,85.16765084703805,186.4711003056426A205,205,0,0,1,84.09149855345537,186.9588721377892Q0,0,187.68395233578656,124.09566485424942Z"/><path fill="#7ed321" d="M70.60681629108292,213.6344482831298A225,225,0,0,1,57.22359905614311,217.60160778602207Q0,0,73.73065921283239,191.2819643668508A205,205,0,0,1,73.37108990798659,191.42017439578868Q0,0,70.60681629108292,213.6344482831298Z"/><path fill="#7ed321" d="M203.2022381615574,-96.61185437685016A225,225,0,0,1,208.09512018227974,-85.56530229200705Q0,0,48.73079368610078,-199.1238552929374A205,205,0,0,1,50.57759535944605,-198.66279683840187Q0,0,203.2022381615574,-96.61185437685016Z"/><path fill="#7ed321" d="M221.81629637008348,-37.71645084918903A225,225,0,0,1,223.42504753194012,-26.575329449515653Q0,0,-77.23265435241959,189.8950160001038A205,205,0,0,1,-79.6495100048182,188.89403261085928Q0,0,221.81629637008348,-37.71645084918903Z"/><path fill="#7ed321" d="M216.00819635217252,-62.97189141737196A225,225,0,0,1,219.40374487171374,-49.86979783664604Q0,0,72.56329202371195,191.72785048260855A205,205,0,0,1,72.55791783839979,191.72988436588602Q0,0,216.00819635217252,-62.97189141737196Z"/><path fill="#7ed321" d="M154.76423436254709,-163.31880406791677A225,225,0,0,1,159.47535419748743,-158.7218050665564Q0,0,154.76423436254709,-163.31880406791677Z"/><path fill="#7ed321" d="M219.40374487171374,-49.86979783664604A225,225,0,0,1,221.81629637008348,-37.71645084918903Q0,0,82.67435244310835,187.5898490007194A205,205,0,0,1,82.61707029310756,187.61508387169653Q0,0,219.40374487171374,-49.86979783664604Z"/><path fill="#7ed321" d="M105.11919308410933,198.93455015493348A225,225,0,0,1,99.20918444152146,201.94686856311532Q0,0,38.413314622372575,201.36885871386028A205,205,0,0,1,33.543463452505215,202.23707884463334Q0,0,105.11919308410933,198.93455015493348Z"/><path fill="#7ed321" d="M-13.335184851376132,224.60448091028735A225,225,0,0,1,-19.244650683986755,224.175474617656Q0,0,43.586651242684496,200.3127650287135A205,205,0,0,1,38.413314622372575,201.36885871386028Q0,0,-13.335184851376132,224.60448091028735Z"/><path fill="#7ed321" d="M-22.66353002011503,-223.85567762964456A225,225,0,0,1,-16.847699088171478,-224.3683467769784Q0,0,-22.66353002011503,-223.85567762964456Z"/><path fill="#7ed321" d="M-222.98645719931469,-30.033979185219504A225,225,0,0,1,-221.31807999107966,-40.53772895787403Q0,0,-8.720911151967801,-204.8144177265836Q0,0,-222.98645719931469,-30.033979185219504Z"/><path fill="#7ed321" d="M174.19554369434468,142.41106894139816A225,225,0,0,1,168.13113974479543,149.5223055203339Q0,0,-84.03703905009658,186.98335772921754A205,205,0,0,1,-85.08909834891995,186.50695789210607Q0,0,174.19554369434468,142.41106894139816Z"/><path fill="#7ed321" d="M-63.06787086396859,-215.98019276009035A225,225,0,0,1,-53.202157987391324,-218.6196020156579Q0,0,-9.826891694680834,-204.76433331911352A205,205,0,0,1,-9.495794897463046,-204.7799547789415Q0,0,-63.06787086396859,-215.98019276009035Z"/><path fill="#7ed321" d="M152.62521781278582,165.3195175640181A225,225,0,0,1,148.70437596962935,168.85499272299626Q0,0,152.62521781278582,165.3195175640181Z"/><path fill="#7ed321" d="M-64.87681282789089,215.44372619618056A225,225,0,0,1,-72.28141124630498,213.07369051162215Q0,0,87.1345780173548,185.56013934500456A205,205,0,0,1,85.16765084703805,186.4711003056426Q0,0,-64.87681282789089,215.44372619618056Z"/><path fill="#7ed321" d="M-221.31807999107966,-40.53772895787403A225,225,0,0,1,-219.3058242054048,-50.298662701786476Q0,0,72.5527783942651,191.73182924927374Q0,0,-221.31807999107966,-40.53772895787403Z"/><path fill="#7ed321" d="M180.08864862841207,134.88172090832893A225,225,0,0,1,174.19554369434468,142.41106894139816Q0,0,73.37108990798659,191.42017439578868A205,205,0,0,1,73.05090481078288,191.54259397409743Q0,0,180.08864862841207,134.88172090832893Z"/><path fill="#7ed321" d="M-72.28141124630498,213.07369051162215A225,225,0,0,1,-77.20913267761584,211.3379990232952Q0,0,40.218189298577265,-201.01616166254843A205,205,0,0,1,43.802568796121506,-200.26566097776484Q0,0,-72.28141124630498,213.07369051162215Z"/><path fill="#7ed321" d="M-219.3058242054048,-50.298662701786476A225,225,0,0,1,-217.09080328162136,-59.13191296195634Q0,0,82.56223150103357,187.6392227908913A205,205,0,0,1,82.56200171471768,187.63932389789449Q0,0,-219.3058242054048,-50.298662701786476Z"/><path fill="#7ed321" d="M25.394122096728363,-223.5623818153145A225,225,0,0,1,32.93382695233188,-222.57664532082842Q0,0,127.9412812791093,160.1749935060396A205,205,0,0,1,126.90058164240254,161.0007527274948Q0,0,25.394122096728363,-223.5623818153145Z"/><path fill="#7ed321" d="M16.882582736928825,-224.3657246553732A225,225,0,0,1,25.394122096728363,-223.5623818153145Q0,0,83.1878106991448,187.3627181460689A205,205,0,0,1,82.93651632360165,187.4740895700122Q0,0,16.882582736928825,-224.3657246553732Z"/><path fill="#7ed321" d="M-187.96951637121524,-123.6626900692826A225,225,0,0,1,-183.1451028405593,-130.7014586969899Q0,0,-9.178940733569647,-204.7944018937276A205,205,0,0,1,-9.021243840664603,-204.80140907612738Q0,0,-187.96951637121524,-123.6626900692826Z"/><path fill="#7ed321" d="M-53.202157987391324,-218.6196020156579A225,225,0,0,1,-45.03117285113254,-220.4477114230298Q0,0,82.79884560087889,187.5349331915572A205,205,0,0,1,82.67435244310835,187.5898490007194Q0,0,-53.202157987391324,-218.6196020156579Z"/><path fill="#7ed321" d="M-183.1451028405593,-130.7014586969899A225,225,0,0,1,-179.50333967096458,-135.6596883638257Q0,0,125.57620592637747,162.03584944430057A205,205,0,0,1,125.49692837813238,162.0972577425476Q0,0,-183.1451028405593,-130.7014586969899Z"/><path fill="#7ed321" d="M156.90889247743624,161.25941665994068A225,225,0,0,1,152.62521781278582,165.3195175640181Q0,0,72.86032259817247,191.61517004373698A205,205,0,0,1,72.67704961945891,191.6847580237164Q0,0,156.90889247743624,161.25941665994068Z"/><path fill="#7ed321" d="M99.20918444152146,201.94686856311532A225,225,0,0,1,95.63551245807234,203.6635675737855Q0,0,130.8881920236085,157.77604757627495A205,205,0,0,1,129.3915001678131,159.0057850655844Q0,0,99.20918444152146,201.94686856311532Z"/><path fill="#7ed321" d="M48.07599014208458,-219.80377424388823A225,225,0,0,1,50.94605416977871,-219.1563358986684Q0,0,48.07599014208458,-219.80377424388823Z"/><path fill="#7ed321" d="M159.47535419748743,-158.7218050665564A225,225,0,0,1,163.54462181460457,-154.52558582810153Q0,0,72.58116208427732,191.72108624378245A205,205,0,0,1,72.56944878729952,191.72552021759523Q0,0,159.47535419748743,-158.7218050665564Z"/><path fill="#7ed321" d="M-45.03117285113254,-220.4477114230298A225,225,0,0,1,-39.73660446508332,-221.46332036160192Q0,0,125.43582338531438,162.14454727695352A205,205,0,0,1,125.3989532358212,162.1730635073542Q0,0,-45.03117285113254,-220.4477114230298Z"/><path fill="#7ed321" d="M-77.20913267761584,211.3379990232952A225,225,0,0,1,-81.65493112375401,209.6603735167306Q0,0,-22.127122225863513,203.80233183651677A205,205,0,0,1,-22.699071394333888,203.73942219863815Q0,0,-77.20913267761584,211.3379990232952Z"/><path fill="#7ed321" d="M39.23935839878237,-221.5519640004392A225,225,0,0,1,44.141915083804314,-220.62749450767512Q0,0,31.120377161094584,202.6240906835888A205,205,0,0,1,30.914821050227744,202.65555467204052Q0,0,39.23935839878237,-221.5519640004392Z"/><path fill="#7ed321" d="M208.09512018227974,-85.56530229200705A225,225,0,0,1,209.87610606529543,-81.09882923241778Q0,0,82.93651632360165,187.4740895700122A205,205,0,0,1,82.79884560087889,187.5349331915572Q0,0,208.09512018227974,-85.56530229200705Z"/><path fill="#7ed321" d="M168.13113974479543,149.5223055203339A225,225,0,0,1,165.06264100151427,152.90299063656414Q0,0,-9.021243840664603,-204.80140907612738A205,205,0,0,1,-8.896537169161617,-204.8068642072275Q0,0,168.13113974479543,149.5223055203339Z"/><path fill="#7ed321" d="M-19.244650683986755,224.175474617656A225,225,0,0,1,-23.261454718547892,223.7943357736673Q0,0,83.61390871086356,187.17295282730188A205,205,0,0,1,83.1878106991448,187.3627181460689Q0,0,-19.244650683986755,224.175474617656Z"/><path fill="#7ed321" d="M145.96811576611248,171.22590101877338A225,225,0,0,1,143.65777173322886,173.16883270566763Q0,0,-13.340229218223632,-204.56548654258677A205,205,0,0,1,-12.045256323444452,-204.64582038268586Q0,0,145.96811576611248,171.22590101877338Z"/><path fill="#7ed321" d="M209.87610606529543,-81.09882923241778A225,225,0,0,1,211.07092056993415,-77.93629763955012Q0,0,-155.5809514542593,-133.48995297245187A205,205,0,0,1,-155.10857747134324,-134.0385362305047Q0,0,209.87610606529543,-81.09882923241778Z"/><path fill="#7ed321" d="M142.01506115979484,174.51854458417802A225,225,0,0,1,140.42335750146142,175.8018221407752Q0,0,33.543463452505215,202.23707884463334A205,205,0,0,1,31.745533178361175,202.52708738146995Q0,0,142.01506115979484,174.51854458417802Z"/><path fill="#7ed321" d="M-87.4201939077273,207.3227187192358A225,225,0,0,1,-89.95113844000706,206.2372243154632Q0,0,126.90058164240254,161.0007527274948A205,205,0,0,1,125.99551176086214,161.71002138432377Q0,0,-87.4201939077273,207.3227187192358Z"/><path fill="#7ed321" d="M-176.78701876198377,-139.18099725627056A225,225,0,0,1,-174.3503131178843,-142.22154659437402Q0,0,72.59446639141694,191.71604901349662A205,205,0,0,1,72.58116208427732,191.72108624378245Q0,0,-176.78701876198377,-139.18099725627056Z"/><path fill="#7ed321" d="M-174.3503131178843,-142.22154659437402A225,225,0,0,1,-172.0266569687965,-145.02354737124597Q0,0,82.61707029310756,187.61508387169653A205,205,0,0,1,82.58878375251217,187.6275374199661Q0,0,-174.3503131178843,-142.22154659437402Z"/><path fill="#7ed321" d="M-81.65493112375401,209.6603735167306A225,225,0,0,1,-84.76754745997272,208.42135902450417Q0,0,73.05090481078288,191.54259397409743A205,205,0,0,1,72.86032259817247,191.61517004373698Q0,0,-81.65493112375401,209.6603735167306Z"/><path fill="#7ed321" d="M223.6419388042688,-24.683662772524205A225,225,0,0,1,223.8293229636196,-22.92235113699442Q0,0,223.6419388042688,-24.683662772524205Z"/><path fill="#7ed321" d="M50.94605416977871,-219.1563358986684A225,225,0,0,1,53.48501746035451,-218.55057288249228Q0,0,-23.135122299363214,203.69036824600596A205,205,0,0,1,-23.56391825348993,203.64120839491903Q0,0,50.94605416977871,-219.1563358986684Z"/><path fill="#7ed321" d="M-89.95113844000706,206.2372243154632A225,225,0,0,1,-92.23577456717918,205.22563653206805Q0,0,31.745533178361175,202.52708738146995A205,205,0,0,1,31.372267224954562,202.58524341413923Q0,0,-89.95113844000706,206.2372243154632Z"/><path fill="#7ed321" d="M-39.73660446508332,-221.46332036160192A225,225,0,0,1,-36.88477947296434,-221.95610611837375Q0,0,72.55791783839979,191.72988436588602A205,205,0,0,1,72.5527783942651,191.73182924927374Q0,0,-39.73660446508332,-221.46332036160192Z"/><path fill="#7ed321" d="M163.54462181460457,-154.52558582810153A225,225,0,0,1,165.24516395711674,-152.70571629374456Q0,0,82.58878375251217,187.6275374199661A205,205,0,0,1,82.56223150103357,187.6392227908913Q0,0,163.54462181460457,-154.52558582810153Z"/><path fill="#7ed321" d="M57.25553697597019,-217.5932064325385A225,225,0,0,1,58.80264038516594,-217.1802235097221Q0,0,-11.257799295633587,-204.690649407879A205,205,0,0,1,-10.501905363778295,-204.73082323805139Q0,0,57.25553697597019,-217.5932064325385Z"/><path fill="#7ed321" d="M211.07092056993415,-77.93629763955012A225,225,0,0,1,211.789661205492,-75.96143367830098Q0,0,125.71120624296073,161.93113544016109A205,205,0,0,1,125.57620592637747,162.03584944430057Q0,0,211.07092056993415,-77.93629763955012Z"/><path fill="#7ed321" d="M-217.09080328162136,-59.13191296195634A225,225,0,0,1,-216.48774990542165,-61.30297008210618Q0,0,-154.15656151472223,-135.1323593443024A205,205,0,0,1,-154.15441018451526,-135.1348135036424Q0,0,-217.09080328162136,-59.13191296195634Z"/><path fill="#7ed321" d="M-16.847699088171478,-224.3683467769784A225,225,0,0,1,-14.641714995611304,-224.52309498576597Q0,0,72.639724504573,191.69890564085057A205,205,0,0,1,72.61306574851102,191.70900522041842Q0,0,-16.847699088171478,-224.3683467769784Z"/><path fill="#7ed321" d="M-172.0266569687965,-145.02354737124597A225,225,0,0,1,-170.75958086443092,-146.51336301854477Q0,0,-23.56391825348993,203.64120839491903A205,205,0,0,1,-23.71863946301285,203.62324558366024Q0,0,-172.0266569687965,-145.02354737124597Z"/><path fill="#7ed321" d="M223.42504753194012,-26.575329449515653A225,225,0,0,1,223.6419388042688,-24.683662772524205Q0,0,55.7507310591712,-197.27355622679883A205,205,0,0,1,55.86488387477409,-197.241260261787Q0,0,223.42504753194012,-26.575329449515653Z"/><path fill="#7ed321" d="M166.12696686456982,-151.74594189097158A225,225,0,0,1,166.88831565184148,-150.90821746641674Q0,0,193.53176525120242,-67.60514654043344A205,205,0,0,1,193.7738778498912,-66.90802838983856Q0,0,166.12696686456982,-151.74594189097158Z"/><path fill="#7ed321" d="M-35.09792558211468,-222.24566501921322A225,225,0,0,1,-33.35893967162498,-222.51332801426724Q0,0,30.874229946149153,202.66174262852945Q0,0,-35.09792558211468,-222.24566501921322Z"/><path fill="#7ed321" d="M165.06264100151427,152.90299063656414A225,225,0,0,1,164.13943904873423,153.89361438593502Q0,0,203.99721321584158,-20.251839426838988A205,205,0,0,1,204.0313961192062,-19.904506968211255Q0,0,165.06264100151427,152.90299063656414Z"/><path fill="#7ed321" d="M-216.48774990542165,-61.30297008210618A225,225,0,0,1,-216.01816199336935,-62.93769688355652Q0,0,149.08692337693446,140.70568317591184A205,205,0,0,1,149.08227090854953,140.71061260882152Q0,0,-216.48774990542165,-61.30297008210618Z"/><path fill="#7ed321" d="M-93.39047379759506,204.70275866206762A225,225,0,0,1,-94.49761730982344,204.19402616816723Q0,0,-9.495794897463046,-204.7799547789415A205,205,0,0,1,-9.178940733569647,-204.7944018937276Q0,0,-93.39047379759506,204.70275866206762Z"/><path fill="#7ed321" d="M-13.220403281829276,-224.6112662736796A225,225,0,0,1,-12.356121178134424,-224.6604688623062Q0,0,84.09149855345537,186.9588721377892A205,205,0,0,1,83.61390871086356,187.17295282730188Q0,0,-13.220403281829276,-224.6112662736796Z"/><path fill="#7ed321" d="M165.24516395711674,-152.70571629374456A225,225,0,0,1,166.12696686456982,-151.74594189097158Q0,0,125.49692837813238,162.0972577425476A205,205,0,0,1,125.43582338531438,162.14454727695352Q0,0,165.24516395711674,-152.70571629374456Z"/><path fill="#7ed321" d="M211.789661205492,-75.96143367830098A225,225,0,0,1,212.1236714452752,-75.02364968846112Q0,0,-86.50569415890327,185.85414947771892A205,205,0,0,1,-86.73034815729886,185.74941913371822Q0,0,211.789661205492,-75.96143367830098Z"/><path fill="#7ed321" d="M-23.261454718547892,223.7943357736673A225,225,0,0,1,-24.285865857655075,223.6854861620306Q0,0,72.67704961945891,191.6847580237164A205,205,0,0,1,72.639724504573,191.69890564085057Q0,0,-23.261454718547892,223.7943357736673Z"/><path fill="#7ed321" d="M-11.526481496829836,-224.70456209054421A225,225,0,0,1,-10.785612835625304,-224.7413414478075Q0,0,31.372267224954562,202.58524341413923A205,205,0,0,1,31.120377161094584,202.6240906835888Q0,0,-11.526481496829836,-224.70456209054421Z"/><path fill="#7ed321" d="M212.6786464206123,-73.43564091567647A225,225,0,0,1,212.87206291766725,-72.87307341656937Q0,0,149.54926668884676,140.21418199607413A205,205,0,0,1,149.34423954363498,140.43253937436785Q0,0,212.6786464206123,-73.43564091567647Z"/><path fill="#7ed321" d="M81.77380228638593,209.61403879422548A225,225,0,0,1,81.34494759388366,209.78083682965018Q0,0,81.77380228638593,209.61403879422548Z"/><path fill="#7ed321" d="M212.1236714452752,-75.02364968846112A225,225,0,0,1,212.41291308058803,-74.20077059315865Q0,0,-8.778236953226717,-204.81196878110666A205,205,0,0,1,-8.738217652257088,-204.81368009061745Q0,0,212.1236714452752,-75.02364968846112Z"/><path fill="#7ed321" d="M-24.91361494500061,223.6164389985053A225,225,0,0,1,-25.392207401740112,223.5625992943968Q0,0,125.99551176086214,161.71002138432377A205,205,0,0,1,125.71120624296073,161.93113544016109Q0,0,-24.91361494500061,223.6164389985053Z"/><path fill="#7ed321" d="M223.8293229636196,-22.92235113699442A225,225,0,0,1,223.89938035885052,-22.227628639213524Q0,0,125.3989532358212,162.1730635073542A205,205,0,0,1,125.37125774750709,162.19447503169812Q0,0,223.8293229636196,-22.92235113699442Z"/><path fill="#7ed321" d="M-170.2411216148889,-147.11546659445636A225,225,0,0,1,-169.78660942049166,-147.63978888325943Q0,0,30.874671160463436,202.66167541183816A205,205,0,0,1,30.874367825638117,202.66172162341658Q0,0,-170.2411216148889,-147.11546659445636Z"/><path fill="#7ed321" d="M212.87206291766725,-72.87307341656937A225,225,0,0,1,213.05624673172522,-72.33281225412318Q0,0,30.914821050227744,202.65555467204052A205,205,0,0,1,30.895352917207386,202.65852355161678Q0,0,212.87206291766725,-72.87307341656937Z"/><path fill="#7ed321" d="M-169.78660942049166,-147.63978888325943A225,225,0,0,1,-169.4675804201969,-148.00587551352172Q0,0,149.2210854939546,140.56339368415198A205,205,0,0,1,149.16526329513286,140.62263056170474Q0,0,-169.78660942049166,-147.63978888325943Z"/><path fill="#7ed321" d="M-33.35893967162498,-222.51332801426724A225,225,0,0,1,-32.82669488269652,-222.59247090384335Q0,0,204.06992280895125,-19.505553177202763A205,205,0,0,1,204.07082498228007,-19.49611220350408Q0,0,-33.35893967162498,-222.51332801426724Z"/><path fill="#7ed321" d="M-216.01816199336935,-62.93769688355652A225,225,0,0,1,-215.90403844678931,-63.32808367831225Q0,0,-23.71863946301285,203.62324558366024A205,205,0,0,1,-23.797158569181722,203.61408410037166Q0,0,-216.01816199336935,-62.93769688355652Z"/><path fill="#7ed321" d="M-215.90403844678931,-63.32808367831225A225,225,0,0,1,-215.79099534255397,-63.71221491260406Q0,0,30.874367825638117,202.66172162341658Q0,0,-215.90403844678931,-63.32808367831225Z"/><path fill="#7ed321" d="M-169.4675804201969,-148.00587551352172A225,225,0,0,1,-169.28239117114785,-148.21765090359003Q0,0,152.50754928896288,-136.99068366087732A205,205,0,0,1,152.5402397337045,-136.95428164896472Q0,0,-169.4675804201969,-148.00587551352172Z"/><path fill="#7ed321" d="M-32.82669488269652,-222.59247090384335A225,225,0,0,1,-32.58425154720793,-222.62809021124957Q0,0,149.0979507990578,140.69399797973523A205,205,0,0,1,149.08692337693446,140.70568317591184Q0,0,-32.82669488269652,-222.59247090384335Z"/><path fill="#7ed321" d="M-215.79099534255397,-63.71221491260406A225,225,0,0,1,-215.7222445383858,-63.94461049471544Q0,0,204.07189905991743,-19.484866283320525Q0,0,-215.79099534255397,-63.71221491260406Z"/><path fill="#7ed321" d="M166.88831565184148,-150.90821746641674A225,225,0,0,1,167.04307367967655,-150.73689507100164Q0,0,-8.738217652257088,-204.81368009061745A205,205,0,0,1,-8.728491462503118,-204.8140948196413Q0,0,166.88831565184148,-150.90821746641674Z"/><path fill="#7ed321" d="M-32.58425154720793,-222.62809021124957A225,225,0,0,1,-32.350131650756175,-222.66223070421879Q0,0,-23.863733571514878,203.60629219164065A205,205,0,0,1,-23.866088445852473,203.6060161741169Q0,0,-32.58425154720793,-222.62809021124957Z"/><path fill="#7ed321" d="M223.93689817961655,-21.84641008706113A225,225,0,0,1,223.95718683834218,-21.63743199771851Q0,0,-8.728491462503118,-204.8140948196413A205,205,0,0,1,-8.720911151967801,-204.8144177265836Q0,0,223.93689817961655,-21.84641008706113Z"/><path fill="#7ed321" d="M163.9144092552091,154.13327492308667A225,225,0,0,1,163.77924017629164,154.27689550699606Q0,0,30.895352917207386,202.65852355161678A205,205,0,0,1,30.87911087135556,202.6609989904188Q0,0,163.9144092552091,154.13327492308667Z"/><path fill="#7ed321" d="M167.04307367967655,-150.73689507100164A225,225,0,0,1,167.17091736912946,-150.59510080332524Q0,0,-86.80965214148165,185.7123697955388A205,205,0,0,1,-86.82595071320277,185.7047502966698Q0,0,167.04307367967655,-150.73689507100164Z"/><path fill="#7ed321" d="M-32.350131650756175,-222.66223070421879A225,225,0,0,1,-32.24145125190917,-222.67799357181835Q0,0,194.16351099031388,-65.76876918351344A205,205,0,0,1,194.18171489218992,-65.71500286485782Q0,0,-32.350131650756175,-222.66223070421879Z"/><path fill="#7ed321" d="M223.95718683834218,-21.63743199771851A225,225,0,0,1,223.9731330294132,-21.4717414521686Q0,0,30.87911087135556,202.6609989904188A205,205,0,0,1,30.87566389213555,202.6615241707707Q0,0,223.95718683834218,-21.63743199771851Z"/><path fill="#7ed321" d="M213.05624673172522,-72.33281225412318A225,225,0,0,1,213.1062925503445,-72.18523446970987Q0,0,-23.856585815741866,203.6071298192088A205,205,0,0,1,-23.863733571514878,203.60629219164065Q0,0,213.05624673172522,-72.33281225412318Z"/><path fill="#7ed321" d="M-9.76449201493348,-224.78802169085944A225,225,0,0,1,-9.634650314517128,-224.79362427194633Q0,0,-23.797158569181722,203.61408410037166A205,205,0,0,1,-23.823312348731324,203.61102570522743Q0,0,-9.76449201493348,-224.78802169085944Z"/><path fill="#7ed321" d="M167.17091736912946,-150.59510080332524A225,225,0,0,1,167.27255691154772,-150.4821973001226Q0,0,30.87566389213555,202.6615241707707A205,205,0,0,1,30.874671160463436,202.66167541183816Q0,0,167.17091736912946,-150.59510080332524Z"/><path fill="#7ed321" d="M-215.7222445383858,-63.94461049471544A225,225,0,0,1,-215.6887515180808,-64.05749346151154Q0,0,152.5570102492504,-136.93560027914623A205,205,0,0,1,152.5572711058659,-136.93530966383847Q0,0,-215.7222445383858,-63.94461049471544Z"/><path fill="#7ed321" d="M-169.28239117114785,-148.21765090359003A225,225,0,0,1,-169.22106667570353,-148.28766163486802Q0,0,-86.82595071320277,185.7047502966698A205,205,0,0,1,-86.83641176963977,185.6998588878666Q0,0,-169.28239117114785,-148.21765090359003Z"/><path fill="#7ed321" d="M163.71797190929215,154.34191159211494A225,225,0,0,1,163.6607537021761,154.40258319612286Q0,0,-23.823312348731324,203.61102570522743A205,205,0,0,1,-23.843065949236244,203.60871348284772Q0,0,163.71797190929215,154.34191159211494Z"/><path fill="#7ed321" d="M-215.6887515180808,-64.05749346151154A225,225,0,0,1,-215.66356244103267,-64.14224688333587Q0,0,194.18544328865215,-65.7039847710141A205,205,0,0,1,194.18858109461405,-65.694710384174Q0,0,-215.6887515180808,-64.05749346151154Z"/><path fill="#7ed321" d="M167.33693830398428,-150.41060161786652A225,225,0,0,1,167.38633458544706,-150.35562840827998Q0,0,149.11313115087157,140.67790913424528A205,205,0,0,1,149.0979507990578,140.69399797973523Q0,0,167.33693830398428,-150.41060161786652Z"/><path fill="#7ed321" d="M167.27255691154772,-150.4821973001226A225,225,0,0,1,167.33693830398428,-150.41060161786652Q0,0,-23.866088445852473,203.6060161741169A205,205,0,0,1,-23.867113507802102,203.60589601680422Q0,0,167.27255691154772,-150.4821973001226Z"/><path fill="#7ed321" d="M-32.24145125190917,-222.67799357181835A225,225,0,0,1,-32.16591278867749,-222.68891767322233Q0,0,152.5402397337045,-136.95428164896472A205,205,0,0,1,152.5497433067331,-136.9436957915546Q0,0,-32.24145125190917,-222.67799357181835Z"/><path fill="#7ed321" d="M223.9731330294132,-21.4717414521686A225,225,0,0,1,223.9771667616921,-21.42962364123933Q0,0,-23.843065949236244,203.60871348284772A205,205,0,0,1,-23.856585815741866,203.6071298192088Q0,0,223.9731330294132,-21.4717414521686Z"/><path fill="#7ed321" d="M-169.22106667570353,-148.28766163486802A225,225,0,0,1,-169.1962260527439,-148.31600415838068Q0,0,204.07082498228007,-19.49611220350408A205,205,0,0,1,204.07165247468313,-19.487448685042196Q0,0,-169.22106667570353,-148.28766163486802Z"/><path fill="#7ed321" d="M223.9771667616921,-21.42962364123933A225,225,0,0,1,223.97918357080013,-21.408533974978642Q0,0,194.18171489218992,-65.71500286485782A205,205,0,0,1,194.18544328865215,-65.7039847710141Q0,0,223.9771667616921,-21.42962364123933Z"/><path fill="#7ed321" d="M167.43264509275582,-150.3040563565843A225,225,0,0,1,167.4406210052748,-150.29517103808732Q0,0,204.07165247468313,-19.487448685042196A205,205,0,0,1,204.07189905991743,-19.484866283320525Q0,0,167.43264509275582,-150.3040563565843Z"/></g></g></svg>