<svg xmlns="http://www.w3.org/2000/svg" width="805" height="600"><rect width="805" height="600" fill="#FFFFFF"/><text x="402.5" y="50" style="text-anchor: middle;" font-size="20"/><g transform="translate(&#xA;      62,&#xA;      70)"><g fill="none" font-size="10" font-family="sans-serif" text-anchor="left" transform="translate(0, 0)"><path class="domain" stroke="currentColor" d="M-6,480H0V0H-6"/><g class="tick" opacity="1" transform="translate(0,480)"><line stroke="currentColor" x2="-6"/><text fill="currentColor" x="-9" dy="0.32em" transform="translate(0, 0)" style="text-anchor: end;">−2.0e+1</text></g><g class="tick" opacity="1" transform="translate(0,426.66666666666663)"><line stroke="currentColor" x2="-6"/><text fill="currentColor" x="-9" dy="0.32em" transform="translate(0, 0)" style="text-anchor: end;">−1.5e+1</text></g><g class="tick" opacity="1" transform="translate(0,373.3333333333333)"><line stroke="currentColor" x2="-6"/><text fill="currentColor" x="-9" dy="0.32em" transform="translate(0, 0)" style="text-anchor: end;">−1.0e+1</text></g><g class="tick" opacity="1" transform="translate(0,320.00000000000006)"><line stroke="currentColor" x2="-6"/><text fill="currentColor" x="-9" dy="0.32em" transform="translate(0, 0)" style="text-anchor: end;">−5.0e+0</text></g><g class="tick" opacity="1" transform="translate(0,266.6666666666667)"><line stroke="currentColor" x2="-6"/><text fill="currentColor" x="-9" dy="0.32em" transform="translate(0, 0)" style="text-anchor: end;">0.0e+0</text></g><g class="tick" opacity="1" transform="translate(0,213.33333333333331)"><line stroke="currentColor" x2="-6"/><text fill="currentColor" x="-9" dy="0.32em" transform="translate(0, 0)" style="text-anchor: end;">5.0e+0</text></g><g class="tick" opacity="1" transform="translate(0,160.00000000000003)"><line stroke="currentColor" x2="-6"/><text fill="currentColor" x="-9" dy="0.32em" transform="translate(0, 0)" style="text-anchor: end;">1.0e+1</text></g><g class="tick" opacity="1" transform="translate(0,106.66666666666666)"><line stroke="currentColor" x2="-6"/><text fill="currentColor" x="-9" dy="0.32em" transform="translate(0, 0)" style="text-anchor: end;">1.5e+1</text></g><g class="tick" opacity="1" transform="translate(0,53.33333333333336)"><line stroke="currentColor" x2="-6"/><text fill="currentColor" x="-9" dy="0.32em" transform="translate(0, 0)" style="text-anchor: end;">2.0e+1</text></g><g class="tick" opacity="1" transform="translate(0,0)"><line stroke="currentColor" x2="-6"/><text fill="currentColor" x="-9" dy="0.32em" transform="translate(0, 0)" style="text-anchor: end;">2.5e+1</text></g></g><g fill="none" font-size="10" font-family="sans-serif" text-anchor="middle" transform="translate(0, 480)"><path class="domain" stroke="currentColor" d="M0,6V0H705V6"/><g class="tick" opacity="1" transform="translate(0,0)"><line stroke="currentColor" y2="6"/><text fill="currentColor" y="9" dy="0.71em">−1.0e+1</text></g><g class="tick" opacity="1" transform="translate(70.5,0)"><line stroke="currentColor" y2="6"/><text fill="currentColor" y="9" dy="0.71em">−8.0e+0</text></g><g class="tick" opacity="1" transform="translate(141,0)"><line stroke="currentColor" y2="6"/><text fill="currentColor" y="9" dy="0.71em">−6.0e+0</text></g><g class="tick" opacity="1" transform="translate(211.5,0)"><line stroke="currentColor" y2="6"/><text fill="currentColor" y="9" dy="0.71em">−4.0e+0</text></g><g class="tick" opacity="1" transform="translate(282,0)"><line stroke="currentColor" y2="6"/><text fill="currentColor" y="9" dy="0.71em">−2.0e+0</text></g><g class="tick" opacity="1" transform="translate(352.5,0)"><line stroke="currentColor" y2="6"/><text fill="currentColor" y="9" dy="0.71em">0.0e+0</text></g><g class="tick" opacity="1" transform="translate(423,0)"><line stroke="currentColor" y2="6"/><text fill="currentColor" y="9" dy="0.71em">2.0e+0</text></g><g class="tick" opacity="1" transform="translate(493.49999999999994,0)"><line stroke="currentColor" y2="6"/><text fill="currentColor" y="9" dy="0.71em">4.0e+0</text></g><g class="tick" opacity="1" transform="translate(564,0)"><line stroke="currentColor" y2="6"/><text fill="currentColor" y="9" dy="0.71em">6.0e+0</text></g><g class="tick" opacity="1" transform="translate(634.5,0)"><line stroke="currentColor" y2="6"/><text fill="currentColor" y="9" dy="0.71em">8.0e+0</text></g><g class="tick" opacity="1" transform="translate(705,0)"><line stroke="currentColor" y2="6"/><text fill="currentColor" y="9" dy="0.71em">1.0e+1</text></g></g><circle cx="517.053151610221" cy="52.0177861940268" r="5" fill="#1f77b4"/><circle cx="606.875626360907" cy="73.99412639332014" r="5" fill="#1f77b4"/><circle cx="589.8585492846577" cy="62.351902760493104" r="5" fill="#1f77b4"/><circle cx="577.9184685464962" cy="74.81965989613008" r="5" fill="#1f77b4"/><circle cx="499.8746093572765" cy="48.56054917024403" r="5" fill="#1f77b4"/><circle cx="459.9017717043152" cy="34.932056209956656" r="5" fill="#1f77b4"/><circle cx="543.0080358794568" cy="55.65197505787779" r="5" fill="#1f77b4"/><circle cx="527.130661065134" cy="61.12152582691168" r="5" fill="#1f77b4"/><circle cx="614.7335173076981" cy="78.99957727506354" r="5" fill="#1f77b4"/><circle cx="577.9182079958678" cy="74.82057667333494" r="5" fill="#1f77b4"/><circle cx="478.538607163507" cy="46.52047415517213" r="5" fill="#1f77b4"/><circle cx="512.3745588540637" cy="65.98908754276779" r="5" fill="#1f77b4"/><circle cx="606.847715637408" cy="74.06769517658098" r="5" fill="#1f77b4"/><circle cx="630.1378251898847" cy="65.33035868935919" r="5" fill="#1f77b4"/><circle cx="426.3626303109682" cy="45.62221096870674" r="5" fill="#1f77b4"/><circle cx="418.8508876890097" cy="35.536186854979576" r="5" fill="#1f77b4"/><circle cx="439.8428702941749" cy="45.94141155675119" r="5" fill="#1f77b4"/><circle cx="517.0528565484005" cy="52.01797493947577" r="5" fill="#1f77b4"/><circle cx="472.9367592078583" cy="36.447425881052986" r="5" fill="#1f77b4"/><circle cx="462.3766610026564" cy="43.31607977812821" r="5" fill="#1f77b4"/><circle cx="502.18607827836155" cy="69.96996108766353" r="5" fill="#1f77b4"/><circle cx="478.52336414954806" cy="46.52629039100173" r="5" fill="#1f77b4"/><circle cx="446.4424474751794" cy="58.63216828087115" r="5" fill="#1f77b4"/><circle cx="520.8185213075118" cy="74.25346558445918" r="5" fill="#1f77b4"/><circle cx="489.4088627200556" cy="75.21298777627939" r="5" fill="#1f77b4"/><circle cx="584.8388696898917" cy="82.67294697945917" r="5" fill="#1f77b4"/><circle cx="512.3744471909969" cy="65.98896051879954" r="5" fill="#1f77b4"/><circle cx="503.5677581852581" cy="56.316150763326945" r="5" fill="#1f77b4"/><circle cx="543.008071423405" cy="55.651893799107995" r="5" fill="#1f77b4"/><circle cx="547.5251113212177" cy="74.81866580163802" r="5" fill="#1f77b4"/><circle cx="563.3186268784659" cy="79.97293277247202" r="5" fill="#1f77b4"/><circle cx="527.1307036550605" cy="61.12145028673618" r="5" fill="#1f77b4"/><circle cx="435.08280948439636" cy="37.438860155171696" r="5" fill="#1f77b4"/><circle cx="423.1987371084443" cy="38.91472648742956" r="5" fill="#1f77b4"/><circle cx="577.9186446161327" cy="74.81880509245322" r="5" fill="#1f77b4"/><circle cx="602.7646188980198" cy="59.79651585535065" r="5" fill="#1f77b4"/><circle cx="530.3684468816834" cy="47.90490821140384" r="5" fill="#1f77b4"/><circle cx="577.9184247177951" cy="74.81984366920854" r="5" fill="#1f77b4"/><circle cx="617.1590685831784" cy="69.29034381094712" r="5" fill="#1f77b4"/><circle cx="527.1306457436469" cy="61.12123806522078" r="5" fill="#1f77b4"/><circle cx="530.3684437678864" cy="47.90476165969601" r="5" fill="#1f77b4"/><circle cx="645.1119776580341" cy="80.90826353232963" r="5" fill="#1f77b4"/><circle cx="589.8585561617217" cy="62.35187264226482" r="5" fill="#1f77b4"/><circle cx="494.0431249781715" cy="60.21696168847667" r="5" fill="#1f77b4"/><circle cx="476.8492158803588" cy="31.441645982078157" r="5" fill="#1f77b4"/><circle cx="606.8754573264828" cy="73.99453019455478" r="5" fill="#1f77b4"/><circle cx="468.67786186280676" cy="39.73317546249744" r="5" fill="#1f77b4"/><circle cx="575.4346064209916" cy="66.06813336502334" r="5" fill="#1f77b4"/><circle cx="478.5472868519163" cy="46.51713078187157" r="5" fill="#1f77b4"/><circle cx="559.5342133769067" cy="61.04512481611722" r="5" fill="#1f77b4"/><circle cx="263.5396526946499" cy="349.0536375197126" r="5" fill="#ff7f0e"/><circle cx="234.56693161358493" cy="340.6161688464754" r="5" fill="#ff7f0e"/><circle cx="291.76747393372796" cy="363.8074307357811" r="5" fill="#ff7f0e"/><circle cx="58.237845011906956" cy="339.93141557331387" r="5" fill="#ff7f0e"/><circle cx="195.46182082073838" cy="358.4531553896458" r="5" fill="#ff7f0e"/><circle cx="176.52897798101154" cy="352.3285474052798" r="5" fill="#ff7f0e"/><circle cx="271.14818780473627" cy="346.0336716452614" r="5" fill="#ff7f0e"/><circle cx="30.763273229180257" cy="322.7901000266138" r="5" fill="#ff7f0e"/><circle cx="209.16455991859638" cy="354.85989785481564" r="5" fill="#ff7f0e"/><circle cx="88.77529127424246" cy="328.4544021260536" r="5" fill="#ff7f0e"/><circle cx="21.210377985039973" cy="330.02460634990274" r="5" fill="#ff7f0e"/><circle cx="161.76233971696522" cy="332.197409479977" r="5" fill="#ff7f0e"/><circle cx="51.16618015495429" cy="340.8009757614359" r="5" fill="#ff7f0e"/><circle cx="227.68463105579522" cy="360.2794081721403" r="5" fill="#ff7f0e"/><circle cx="74.92274338036854" cy="320.16932551320747" r="5" fill="#ff7f0e"/><circle cx="204.54970078231185" cy="337.6428685169435" r="5" fill="#ff7f0e"/><circle cx="206.83451489179583" cy="345.50512677969664" r="5" fill="#ff7f0e"/><circle cx="107.87980022219587" cy="335.53003722304396" r="5" fill="#ff7f0e"/><circle cx="96.66689762911776" cy="359.1517398882776" r="5" fill="#ff7f0e"/><circle cx="68.51105233005468" cy="333.0475448192844" r="5" fill="#ff7f0e"/><circle cx="280.0918072229624" cy="354.20923359404986" r="5" fill="#ff7f0e"/><circle cx="111.0035378468559" cy="328.96282003445333" r="5" fill="#ff7f0e"/><circle cx="225.21395650719433" cy="386.6718168438919" r="5" fill="#ff7f0e"/><circle cx="215.1188473573766" cy="364.44735076109953" r="5" fill="#ff7f0e"/><circle cx="161.05269228877413" cy="339.5686578505031" r="5" fill="#ff7f0e"/><circle cx="189.43243419513203" cy="340.47532410934787" r="5" fill="#ff7f0e"/><circle cx="235.01728130657932" cy="370.26640730650377" r="5" fill="#ff7f0e"/><circle cx="300.46059715380306" cy="373.7131325068734" r="5" fill="#ff7f0e"/><circle cx="190.6893761689065" cy="349.2230308181215" r="5" fill="#ff7f0e"/><circle cx="50.60892155697207" cy="322.7771625934321" r="5" fill="#ff7f0e"/><circle cx="52.92720849862342" cy="332.5861548844024" r="5" fill="#ff7f0e"/><circle cx="47.824748522410744" cy="330.04481231923967" r="5" fill="#ff7f0e"/><circle cx="88.77522697046601" cy="328.45454138534404" r="5" fill="#ff7f0e"/><circle cx="271.1227239614055" cy="388.6342194624825" r="5" fill="#ff7f0e"/><circle cx="206.83454524259335" cy="345.50495891661876" r="5" fill="#ff7f0e"/><circle cx="255.00532992965933" cy="338.27276791404125" r="5" fill="#ff7f0e"/><circle cx="252.56891238441995" cy="352.67197115747626" r="5" fill="#ff7f0e"/><circle cx="95.4438993353169" cy="355.7216208188618" r="5" fill="#ff7f0e"/><circle cx="144.75575128020628" cy="328.80546906613523" r="5" fill="#ff7f0e"/><circle cx="76.34555287240502" cy="336.98190415711696" r="5" fill="#ff7f0e"/><circle cx="128.2272570826817" cy="351.34956751626333" r="5" fill="#ff7f0e"/><circle cx="223.94078164435757" cy="350.8952663398303" r="5" fill="#ff7f0e"/><circle cx="87.17119839285743" cy="334.6079690644097" r="5" fill="#ff7f0e"/><circle cx="26.23585455404251" cy="324.11812615337465" r="5" fill="#ff7f0e"/><circle cx="118.59237573240135" cy="339.51476427069275" r="5" fill="#ff7f0e"/><circle cx="161.76234871947315" cy="332.1974113834956" r="5" fill="#ff7f0e"/><circle cx="144.75402550081975" cy="335.0276302097458" r="5" fill="#ff7f0e"/><circle cx="161.05277234165837" cy="339.5685270776983" r="5" fill="#ff7f0e"/><circle cx="24.557440157707052" cy="319.7094886148677" r="5" fill="#ff7f0e"/><circle cx="121.7230361461542" cy="332.5565695050205" r="5" fill="#ff7f0e"/><circle cx="447.64425960783313" cy="417.351362755019" r="5" fill="#2ca02c"/><circle cx="271.1227572595968" cy="388.634253810037" r="5" fill="#2ca02c"/><circle cx="454.88907030523666" cy="406.38746399322196" r="5" fill="#2ca02c"/><circle cx="422.8572548977107" cy="396.998266797225" r="5" fill="#2ca02c"/><circle cx="442.3943787262708" cy="404.267513137606" r="5" fill="#2ca02c"/><circle cx="500.3995374306427" cy="416.808189262082" r="5" fill="#2ca02c"/><circle cx="122.69371319496327" cy="357.12445830868455" r="5" fill="#2ca02c"/><circle cx="490.0566894245524" cy="411.32046769719193" r="5" fill="#2ca02c"/><circle cx="463.8786739330286" cy="392.008453336699" r="5" fill="#2ca02c"/><circle cx="450.6734613987674" cy="424.09034349301743" r="5" fill="#2ca02c"/><circle cx="339.42163197605015" cy="376.75935130840696" r="5" fill="#2ca02c"/><circle cx="305.11054496145033" cy="394.5369426698051" r="5" fill="#2ca02c"/><circle cx="400.13822129252867" cy="397.07585461317035" r="5" fill="#2ca02c"/><circle cx="237.2044886023766" cy="389.9680680643076" r="5" fill="#2ca02c"/><circle cx="288.2044029674007" cy="385.12413833317237" r="5" fill="#2ca02c"/><circle cx="363.5962686774245" cy="393.5041720657357" r="5" fill="#2ca02c"/><circle cx="400.13820660328713" cy="397.0758546386223" r="5" fill="#2ca02c"/><circle cx="477.69447774607227" cy="427.6056172031695" r="5" fill="#2ca02c"/><circle cx="517.1441692686515" cy="414.0439628379875" r="5" fill="#2ca02c"/><circle cx="212.20246385694043" cy="392.7231605881656" r="5" fill="#2ca02c"/><circle cx="419.0067923878388" cy="409.07382318405166" r="5" fill="#2ca02c"/><circle cx="255.41121271094246" cy="375.79739254302393" r="5" fill="#2ca02c"/><circle cx="510.0045291501511" cy="414.5979543593866" r="5" fill="#2ca02c"/><circle cx="243.8982606279435" cy="380.0160185584377" r="5" fill="#2ca02c"/><circle cx="414.7457021955551" cy="413.16702618443566" r="5" fill="#2ca02c"/><circle cx="453.8100646103648" cy="414.40271662511907" r="5" fill="#2ca02c"/><circle cx="235.0186140278654" cy="370.2659385230888" r="5" fill="#2ca02c"/><circle cx="280.62379622823494" cy="367.79638119257834" r="5" fill="#2ca02c"/><circle cx="430.14468858907657" cy="393.6730184144458" r="5" fill="#2ca02c"/><circle cx="442.39435865271474" cy="404.26755488170625" r="5" fill="#2ca02c"/><circle cx="481.2059957199664" cy="405.18529868382694" r="5" fill="#2ca02c"/><circle cx="467.7629206631313" cy="427.52521168754765" r="5" fill="#2ca02c"/><circle cx="430.1447744667411" cy="393.6729364823327" r="5" fill="#2ca02c"/><circle cx="288.2043691367719" cy="385.1241165321604" r="5" fill="#2ca02c"/><circle cx="443.4978505403154" cy="389.1131668614957" r="5" fill="#2ca02c"/><circle cx="471.93410745289646" cy="410.4736891383593" r="5" fill="#2ca02c"/><circle cx="397.55241173862464" cy="413.4968995560166" r="5" fill="#2ca02c"/><circle cx="393.703865343398" cy="401.39966706634056" r="5" fill="#2ca02c"/><circle cx="260.0727969294961" cy="361.7807530453803" r="5" fill="#2ca02c"/><circle cx="377.78085649345667" cy="396.86770483443007" r="5" fill="#2ca02c"/><circle cx="409.97667009193844" cy="403.82082679329926" r="5" fill="#2ca02c"/><circle cx="328.9766255467166" cy="377.9999737271093" r="5" fill="#2ca02c"/><circle cx="271.1226855861252" cy="388.6340939779293" r="5" fill="#2ca02c"/><circle cx="441.7852507112163" cy="413.1438129243797" r="5" fill="#2ca02c"/><circle cx="414.7456865910035" cy="413.1671456210937" r="5" fill="#2ca02c"/><circle cx="335.30671551506794" cy="386.0987735962991" r="5" fill="#2ca02c"/><circle cx="237.20442501658317" cy="389.967956390425" r="5" fill="#2ca02c"/><circle cx="335.3067893451897" cy="386.0987776897496" r="5" fill="#2ca02c"/><circle cx="374.62242890919873" cy="408.20126035530956" r="5" fill="#2ca02c"/><circle cx="316.538415982012" cy="380.0627128804108" r="5" fill="#2ca02c"/></g></svg>